<svg id="SvgjsSvg1001" width="288" height="288" xmlns="http://www.w3.org/2000/svg" version="1.1" xmlns:xlink="http://www.w3.org/1999/xlink" xmlns:svgjs="http://svgjs.com/svgjs"><defs id="SvgjsDefs1002"></defs><g id="SvgjsG1008"><svg xmlns="http://www.w3.org/2000/svg" fill="none" viewBox="0 0 300 300" width="288" height="288"><g clip-path="url(#a)" fill="#ac0000" class="color000 svgShape"><path fill="#800000" d="M279.5 150C279.6 149.9 183.9 53.7001 183.9 53.7001C181.6 51.4001 182.3 47.6001 185.2 46.2001C204.2 36.9001 227.6 39.6001 243.6 54.9001C254.2 65.1001 259.5 78.8001 259.4 92.4001C259.4 94.9001 260.4 97.3001 262.2 99.1001L287.2 124.1C289.6 126.5 293.8 125.6 294.9 122.4C306.1 90.1001 298.9 52.7001 273.1 26.9001C239.5 -6.6999 186.1 -8.7999 150 20.5001C149.9 20.4001 53.7001 116.1 53.7001 116.1C51.4001 118.4 47.6001 117.7 46.2001 114.8C36.9001 95.8001 39.6001 72.4001 54.9001 56.4001C65.1001 45.8001 78.8001 40.5001 92.4001 40.6001C94.9001 40.6001 97.3001 39.6001 99.1001 37.8001L124.1 12.8001C126.5 10.4001 125.6 6.20009 122.4 5.10009C90.1001 -6.09991 52.7001 1.1001 26.9001 26.9001C-6.6999 60.5001 -8.7999 113.9 20.5001 150C20.4001 150.1 116.1 246.3 116.1 246.3C118.4 248.6 117.7 252.4 114.8 253.8C95.8001 263.1 72.4001 260.4 56.4001 245.1C45.8001 234.9 40.5001 221.2 40.6001 207.6C40.6001 205.1 39.6001 202.7 37.8001 200.9L12.8001 175.9C10.4001 173.5 6.20009 174.4 5.10009 177.6C-6.09991 209.9 1.1001 247.3 26.9001 273.1C60.5001 306.7 113.9 308.8 150 279.5C150.1 279.6 246.3 183.9 246.3 183.9C248.6 181.6 252.4 182.3 253.8 185.2C263.1 204.2 260.4 227.6 245.1 243.6C234.9 254.2 221.2 259.5 207.6 259.4C205.1 259.4 202.7 260.4 200.9 262.2L175.9 287.2C173.5 289.6 174.4 293.8 177.6 294.9C209.9 306.1 247.3 298.9 273.1 273.1C306.7 239.5 308.8 186.1 279.5 150ZM236.2 168.3C222.1 163.6 205.8 166.8 194.6 178.1C194.6 178.1 152 220.7 135.4 237.3C134.1 238.6 131.9 237.3 132.5 235.5C136.7 221.6 133.3 205.9 122.4 194.9C122.4 194.9 79.5001 152 62.1001 134.5C60.8001 133.2 62.2001 131 63.9001 131.6C78.0001 136.3 94.3001 133.1 105.5 121.8C105.5 121.8 147.9 79.4001 166.2 61.2001C167.5 59.9001 169.8 61.3001 169.1 63.0001C163.9 77.4001 167 94.1001 178.6 105.7C178.6 105.7 220.8 147.9 238.1 165.3C239.4 166.7 238 168.9 236.2 168.3Z" class="color191919 svgShape"></path></g><defs><clipPath id="a"><rect width="300" height="300" fill="#ffecec" class="colorfff svgShape"></rect></clipPath></defs></svg></g></svg>